# xmcd
#
# Track frame offsets:
# 150
# 6982
# 24832
# 34302
# 53782
# 65107
# 79642
# 97917
# 117192
# 151247
# 170045
# 175707
#
# Disc length: 2600 seconds
#
#
# Revision: 4
# Processed by: cddbd v1.4PL0 Copyright (c) Steve Scherf et al.
# Submitted via: FreeRIP 2.00 
#
DISCID=8e0a260c
DTITLE=Louis Armstrong - When The Saints Go Marchin' In
DYEAR=1900
DGENRE=
TTITLE0=Tiger Rag
TTITLE1=When I Grow Too Old To Dream
TTITLE2=Perdido
TTITLE3=On The Alamo
TTITLE4=Lover Come Back To Me
TTITLE5=Can't Help Lovin' Dat Man
TTITLE6=Volare
TTITLE7=Cocktail For Two
TTITLE8=Stompin' At The Savoy
TTITLE9=I Left My Heart In San Francisco
TTITLE10=Bill Bailey Won't You Please Come Home
TTITLE11=When The Saints Go Marchin' In
EXTD=
EXTT0=
EXTT1=
EXTT2=
EXTT3=
EXTT4=
EXTT5=
EXTT6=
EXTT7=
EXTT8=
EXTT9=
EXTT10=
EXTT11=
PLAYORDER=
